<svg xmlns="http://www.w3.org/2000/svg" viewBox="0 0 100 100">
  <rect width="100" height="100" fill="#ffffff" rx="20"/>
  <path d="M25 45c0-20 13-30 30-30 13 0 18 8 18 20 0 10-5 18-12 25-5-7-8-13-8-22 0-7 2-12 5-15-10 2-17 8-17 18 0 8 5 15 12 20-10-2-20-8-28-16z" fill="#52B54B"/>
  <path d="M52 65c0-7 5-12 10-15 3-2 7-3 10-3 7 0 10 3 10 8 0 5-3 10-8 13-3-3-5-7-5-10 0-3 1-4 3-5-4 1-7 3-7 7 0 3 2 6 5 8-4-1-10-2-18-3z" fill="#52B54B"/>
  <text x="18" y="90" font-family="Arial, sans-serif" font-size="20" font-weight="900" fill="#2C3E2D">ADI ARI</text>
</svg>
