<svg xmlns="http://www.w3.org/2000/svg" xmlns:xlink="http://www.w3.org/1999/xlink" width="2000" zoomAndPan="magnify" viewBox="0 0 1500 1499.999933" height="2000" preserveAspectRatio="xMidYMid meet" version="1.0"><defs><g/><clipPath id="61d667e902"><path d="M 24 249 L 460 249 L 460 972 L 24 972 Z M 24 249 " clip-rule="nonzero"/></clipPath><clipPath id="81cc08ff33"><path d="M 21.449219 246.929688 L 574.652344 356.753906 L 451.972656 974.695312 L -101.230469 864.867188 Z M 21.449219 246.929688 " clip-rule="nonzero"/></clipPath><clipPath id="b1d679a7c3"><path d="M 21.449219 246.929688 L 574.652344 356.753906 L 451.972656 974.695312 L -101.230469 864.867188 Z M 21.449219 246.929688 " clip-rule="nonzero"/></clipPath><clipPath id="6d40b463c4"><path d="M 465 409 L 918 409 L 918 885 L 465 885 Z M 465 409 " clip-rule="nonzero"/></clipPath><clipPath id="0dfef0ee6b"><path d="M 451.011719 420.035156 L 917.285156 405.53125 L 931.859375 874.054688 L 465.582031 888.558594 Z M 451.011719 420.035156 " clip-rule="nonzero"/></clipPath><clipPath id="fa21f36251"><path d="M 451.011719 420.035156 L 917.285156 405.53125 L 931.859375 874.054688 L 465.582031 888.558594 Z M 451.011719 420.035156 " clip-rule="nonzero"/></clipPath><clipPath id="6a96a446ee"><rect x="0" width="727" y="0" height="237"/></clipPath></defs><rect x="-150" width="1800" fill="#ffffff" y="-149.999993" height="1799.99992" fill-opacity="1"/><rect x="-150" width="1800" fill="#ffffff" y="-149.999993" height="1799.99992" fill-opacity="1"/><g clip-path="url(#61d667e902)"><g clip-path="url(#81cc08ff33)"><g clip-path="url(#b1d679a7c3)"><path fill="#4bab13" d="M 418.316406 960.226562 C 409.953125 789.300781 418.351562 665.523438 306.261719 533.257812 C 302.847656 529.078125 300.355469 526.277344 299.605469 525.898438 C 298.917969 526.988281 302.21875 531.089844 303.699219 533.902344 C 339.199219 587.703125 396.21875 692.300781 374.257812 755.128906 C 349.949219 802.410156 270.789062 767.667969 239.304688 744.925781 C 148.785156 684.261719 109.003906 582.519531 91 479.671875 C 78.890625 425.035156 72.082031 370.320312 55.667969 316.421875 C 50.804688 297.882812 38.027344 276.664062 26.324219 258.207031 C 21.179688 248.414062 27.84375 248.199219 34.753906 250.46875 C 59.339844 258.539062 82.839844 265.980469 108.132812 273.367188 C 265.453125 312.730469 393.929688 409.441406 436.101562 570.515625 C 453.445312 628.84375 456.75 695.773438 459.632812 771.765625 C 460.53125 824.050781 458.671875 893.886719 453.433594 951.691406 C 452.554688 960.558594 452.789062 971.285156 442.242188 971.199219 C 434.78125 970.828125 423.542969 969.410156 419.222656 962.1875 Z M 418.316406 960.226562 " fill-opacity="1" fill-rule="nonzero"/></g></g></g><g clip-path="url(#6d40b463c4)"><g clip-path="url(#0dfef0ee6b)"><g clip-path="url(#fa21f36251)"><path fill="#4bab13" d="M 465.175781 875.457031 C 474.089844 791.21875 485.492188 714.433594 508.441406 636.421875 C 535.65625 527.089844 620.242188 439.980469 730.617188 420.175781 C 780.355469 409.910156 846.042969 413.816406 898.511719 410.574219 C 904.253906 410.539062 908.363281 409.816406 914.308594 409.867188 C 916.105469 409.933594 917.285156 410.246094 917.675781 410.902344 C 917.722656 414.722656 911.179688 418.300781 907.742188 421.894531 C 869.820312 458.003906 859.472656 493.207031 837.550781 536.644531 C 805.710938 607.777344 772.609375 667.621094 723.324219 705.519531 C 689.410156 735.582031 574.992188 787.902344 550.960938 725.328125 C 544.515625 681.367188 600.980469 611.847656 630.949219 580.402344 C 634.933594 576.085938 660.726562 549.867188 642.699219 563.960938 C 610.59375 589.535156 580.277344 624.539062 560.367188 658.933594 C 536.785156 700.074219 517.503906 762.960938 501.375 849.210938 C 498.800781 865.378906 496.117188 887.21875 475.597656 884.195312 C 470.863281 884.292969 466.40625 881.089844 465.722656 877.859375 Z M 465.175781 875.457031 " fill-opacity="1" fill-rule="nonzero"/></g></g></g><g transform="matrix(1, 0, 0, 1, 480, 768)"><g clip-path="url(#6a96a446ee)"><g fill="#214001" fill-opacity="1"><g transform="translate(10.006455, 166.832317)"><g><path d="M 90.8125 -156.40625 L 153.9375 0 L 115.640625 0 L 104.078125 -31.28125 L 44.546875 -31.28125 L 32.984375 0 L -5.3125 0 L 57.828125 -156.40625 Z M 91.953125 -62.5625 L 74.5 -108.0625 L 74.125 -108.0625 L 56.6875 -62.5625 Z M 91.953125 -62.5625 "/></g></g></g><g fill="#214001" fill-opacity="1"><g transform="translate(154.445019, 166.832317)"><g><path d="M 11.375 -156.40625 L 56.6875 -156.40625 C 78.425781 -156.40625 97.003906 -148.976562 112.421875 -134.125 C 127.835938 -119.269531 135.546875 -100.660156 135.546875 -78.296875 C 135.546875 -55.796875 127.867188 -37.117188 112.515625 -22.265625 C 97.160156 -7.421875 78.550781 0 56.6875 0 L 11.375 0 Z M 47.015625 -31.84375 L 52.515625 -31.84375 C 65.535156 -31.84375 76.179688 -36.234375 84.453125 -45.015625 C 92.734375 -53.804688 96.9375 -64.835938 97.0625 -78.109375 C 97.0625 -91.378906 92.921875 -102.4375 84.640625 -111.28125 C 76.367188 -120.125 65.660156 -124.546875 52.515625 -124.546875 L 47.015625 -124.546875 Z M 47.015625 -31.84375 "/></g></g></g><g fill="#214001" fill-opacity="1"><g transform="translate(290.164185, 166.832317)"><g><path d="M 47.015625 -156.40625 L 47.015625 0 L 11.375 0 L 11.375 -156.40625 Z M 47.015625 -156.40625 "/></g></g></g><g fill="#214001" fill-opacity="1"><g transform="translate(344.375582, 166.832317)"><g/></g></g><g fill="#214001" fill-opacity="1"><g transform="translate(391.952613, 166.832317)"><g><path d="M 90.8125 -156.40625 L 153.9375 0 L 115.640625 0 L 104.078125 -31.28125 L 44.546875 -31.28125 L 32.984375 0 L -5.3125 0 L 57.828125 -156.40625 Z M 91.953125 -62.5625 L 74.5 -108.0625 L 74.125 -108.0625 L 56.6875 -62.5625 Z M 91.953125 -62.5625 "/></g></g></g><g fill="#214001" fill-opacity="1"><g transform="translate(536.391176, 166.832317)"><g><path d="M 11.375 -156.40625 L 67.296875 -156.40625 C 82.335938 -156.40625 94.597656 -152.390625 104.078125 -144.359375 C 113.554688 -136.335938 118.296875 -124.867188 118.296875 -109.953125 C 118.296875 -98.453125 115.421875 -88.816406 109.671875 -81.046875 C 103.921875 -73.273438 96.117188 -67.804688 86.265625 -64.640625 L 140.09375 0 L 94.78125 0 L 47.015625 -61.796875 L 47.015625 0 L 11.375 0 Z M 47.015625 -87.015625 L 51.1875 -87.015625 C 54.46875 -87.015625 57.242188 -87.078125 59.515625 -87.203125 C 61.796875 -87.328125 64.390625 -87.769531 67.296875 -88.53125 C 70.203125 -89.289062 72.539062 -90.363281 74.3125 -91.75 C 76.082031 -93.144531 77.597656 -95.164062 78.859375 -97.8125 C 80.128906 -100.46875 80.765625 -103.691406 80.765625 -107.484375 C 80.765625 -111.273438 80.128906 -114.5 78.859375 -117.15625 C 77.597656 -119.8125 76.082031 -121.832031 74.3125 -123.21875 C 72.539062 -124.613281 70.203125 -125.691406 67.296875 -126.453125 C 64.390625 -127.210938 61.796875 -127.65625 59.515625 -127.78125 C 57.242188 -127.90625 54.46875 -127.96875 51.1875 -127.96875 L 47.015625 -127.96875 Z M 47.015625 -87.015625 "/></g></g></g><g fill="#214001" fill-opacity="1"><g transform="translate(667.94016, 166.832317)"><g><path d="M 47.015625 -156.40625 L 47.015625 0 L 11.375 0 L 11.375 -156.40625 Z M 47.015625 -156.40625 "/></g></g></g></g></g><g fill="#3d3d3d" fill-opacity="1"><g transform="translate(231.427103, 1059.043473)"><g><path d="M 45.40625 -38.671875 L 44.046875 -38.671875 C 43.710938 -41.441406 42.695312 -43.492188 41 -44.828125 C 39.300781 -46.171875 36.726562 -46.84375 33.28125 -46.84375 L 17.71875 -46.84375 L 17.71875 -27.40625 L 29.90625 -27.40625 C 32.488281 -27.40625 34.296875 -27.867188 35.328125 -28.796875 C 36.359375 -29.734375 36.875 -31.207031 36.875 -33.21875 L 36.875 -34.359375 L 38.15625 -34.359375 L 38.15625 -17.578125 L 36.875 -17.578125 L 36.875 -18.4375 C 36.875 -20.539062 36.367188 -22.082031 35.359375 -23.0625 C 34.359375 -24.039062 32.78125 -24.53125 30.625 -24.53125 L 17.71875 -24.53125 L 17.71875 -7.171875 C 17.71875 -4.878906 18.289062 -3.328125 19.4375 -2.515625 C 20.582031 -1.703125 22.375 -1.296875 24.8125 -1.296875 L 24.8125 0 L 3.078125 0 L 3.078125 -1.296875 L 3.515625 -1.296875 C 5.671875 -1.296875 7.285156 -1.738281 8.359375 -2.625 C 9.429688 -3.507812 9.96875 -5.050781 9.96875 -7.25 L 9.96875 -42.390625 C 9.96875 -44.398438 9.414062 -45.832031 8.3125 -46.6875 C 7.21875 -47.550781 5.472656 -47.984375 3.078125 -47.984375 L 3.078125 -49.28125 L 44.90625 -49.28125 Z M 45.40625 -38.671875 "/></g></g></g><g fill="#3d3d3d" fill-opacity="1"><g transform="translate(285.719209, 1059.043473)"><g><path d="M 42.46875 -36.4375 C 42.46875 -33.425781 41.4375 -30.832031 39.375 -28.65625 C 37.320312 -26.476562 34.191406 -24.863281 29.984375 -23.8125 L 41.390625 -9.6875 C 42.773438 -7.96875 43.945312 -6.59375 44.90625 -5.5625 C 45.863281 -4.53125 47.046875 -3.59375 48.453125 -2.75 C 49.867188 -1.914062 51.4375 -1.429688 53.15625 -1.296875 L 53.15625 0 L 40.3125 0 L 21.734375 -23.09375 L 17 -23.09375 L 17 -7.109375 C 17 -5.003906 17.535156 -3.507812 18.609375 -2.625 C 19.691406 -1.738281 21.378906 -1.296875 23.671875 -1.296875 L 23.953125 -1.296875 L 23.953125 0 L 2.4375 0 L 2.4375 -1.296875 C 4.726562 -1.296875 6.4375 -1.703125 7.5625 -2.515625 C 8.6875 -3.328125 9.25 -4.785156 9.25 -6.890625 L 9.25 -42.53125 C 9.25 -44.445312 8.6875 -45.832031 7.5625 -46.6875 C 6.4375 -47.550781 4.726562 -47.984375 2.4375 -47.984375 L 2.4375 -49.28125 L 25.46875 -49.28125 C 30.15625 -49.28125 34.160156 -48.226562 37.484375 -46.125 C 40.804688 -44.019531 42.46875 -40.789062 42.46875 -36.4375 Z M 17 -45.484375 L 17 -25.53125 L 18.796875 -25.53125 C 23.628906 -25.53125 27.285156 -26.472656 29.765625 -28.359375 C 32.253906 -30.253906 33.5 -32.875 33.5 -36.21875 C 33.5 -39.144531 32.550781 -41.632812 30.65625 -43.6875 C 28.769531 -45.738281 26.109375 -46.765625 22.671875 -46.765625 C 20.804688 -46.765625 18.914062 -46.335938 17 -45.484375 Z M 17 -45.484375 "/></g></g></g><g fill="#3d3d3d" fill-opacity="1"><g transform="translate(347.470058, 1059.043473)"><g><path d="M 42.25 -38.375 L 41.03125 -38.375 C 40.550781 -41.101562 39.664062 -43.125 38.375 -44.4375 C 37.082031 -45.75 35.289062 -46.40625 33 -46.40625 L 17.4375 -46.40625 L 17.4375 -27.40625 L 30.203125 -27.40625 C 32.492188 -27.40625 34.117188 -27.976562 35.078125 -29.125 C 36.035156 -30.269531 36.535156 -32.085938 36.578125 -34.578125 L 37.875 -34.578125 L 37.875 -17.21875 L 36.578125 -17.21875 C 36.578125 -19.707031 36.097656 -21.546875 35.140625 -22.734375 C 34.191406 -23.929688 32.5 -24.53125 30.0625 -24.53125 L 17.4375 -24.53125 L 17.4375 -6.53125 C 17.4375 -4.09375 18.390625 -2.875 20.296875 -2.875 L 32.921875 -2.875 C 35.554688 -2.875 37.875 -3.671875 39.875 -5.265625 C 41.882812 -6.867188 43.515625 -9.203125 44.765625 -12.265625 L 46.265625 -12.265625 L 42.25 0 L 2.578125 0 L 2.578125 -1.296875 C 5.066406 -1.296875 6.875 -1.710938 8 -2.546875 C 9.125 -3.378906 9.6875 -4.945312 9.6875 -7.25 L 9.6875 -42.53125 C 9.6875 -44.445312 9.125 -45.832031 8 -46.6875 C 6.875 -47.550781 5.066406 -47.984375 2.578125 -47.984375 L 2.578125 -49.28125 L 41.671875 -49.28125 Z M 42.25 -38.375 "/></g></g></g><g fill="#3d3d3d" fill-opacity="1"><g transform="translate(401.762164, 1059.043473)"><g><path d="M 18.078125 -50.359375 C 19.703125 -50.359375 21.113281 -50.203125 22.3125 -49.890625 C 23.507812 -49.578125 24.726562 -49.160156 25.96875 -48.640625 C 26.59375 -48.398438 27.203125 -48.179688 27.796875 -47.984375 C 28.390625 -47.796875 28.925781 -47.703125 29.40625 -47.703125 C 30.550781 -47.703125 31.460938 -48.585938 32.140625 -50.359375 L 33.5 -50.359375 L 33.5 -34 L 32.140625 -34 C 31.898438 -36.53125 31.144531 -38.835938 29.875 -40.921875 C 28.601562 -43.003906 27.023438 -44.640625 25.140625 -45.828125 C 23.253906 -47.023438 21.234375 -47.625 19.078125 -47.625 C 16.734375 -47.625 14.722656 -46.921875 13.046875 -45.515625 C 11.378906 -44.109375 10.546875 -42.398438 10.546875 -40.390625 C 10.546875 -38.046875 11.691406 -36.007812 13.984375 -34.28125 C 15.609375 -33.09375 17.878906 -31.660156 20.796875 -29.984375 C 23.378906 -28.410156 25.53125 -27.046875 27.25 -25.890625 C 28.976562 -24.742188 30.582031 -23.503906 32.0625 -22.171875 C 33.40625 -20.878906 34.46875 -19.394531 35.25 -17.71875 C 36.039062 -16.039062 36.4375 -14.316406 36.4375 -12.546875 C 36.4375 -10.109375 35.765625 -7.835938 34.421875 -5.734375 C 33.085938 -3.628906 31.257812 -1.96875 28.9375 -0.75 C 26.625 0.46875 24.082031 1.078125 21.3125 1.078125 C 19.539062 1.078125 17.972656 0.921875 16.609375 0.609375 C 15.242188 0.296875 13.820312 -0.117188 12.34375 -0.640625 C 10.71875 -1.210938 9.5 -1.5 8.6875 -1.5 C 7.394531 -1.5 6.410156 -0.640625 5.734375 1.078125 L 4.453125 1.078125 L 4.453125 -15.5 L 5.734375 -15.5 C 6.546875 -11.238281 8.160156 -7.863281 10.578125 -5.375 C 12.992188 -2.894531 16.113281 -1.65625 19.9375 -1.65625 C 22.664062 -1.65625 24.914062 -2.394531 26.6875 -3.875 C 28.457031 -5.351562 29.34375 -7.21875 29.34375 -9.46875 C 29.34375 -10.613281 29.125 -11.664062 28.6875 -12.625 C 28.257812 -13.582031 27.546875 -14.609375 26.546875 -15.703125 C 25.628906 -16.660156 24.332031 -17.703125 22.65625 -18.828125 C 20.988281 -19.953125 18.769531 -21.351562 16 -23.03125 C 13.65625 -24.457031 11.859375 -25.585938 10.609375 -26.421875 C 9.367188 -27.265625 8.4375 -28 7.8125 -28.625 C 5.375 -31.113281 4.15625 -34.101562 4.15625 -37.59375 C 4.15625 -39.976562 4.765625 -42.140625 5.984375 -44.078125 C 7.203125 -46.015625 8.863281 -47.546875 10.96875 -48.671875 C 13.070312 -49.796875 15.441406 -50.359375 18.078125 -50.359375 Z M 18.078125 -50.359375 "/></g></g></g><g fill="#3d3d3d" fill-opacity="1"><g transform="translate(447.806617, 1059.043473)"><g><path d="M 24.609375 -47.984375 L 24.171875 -47.984375 C 21.785156 -47.984375 20.050781 -47.550781 18.96875 -46.6875 C 17.894531 -45.832031 17.359375 -44.28125 17.359375 -42.03125 L 17.359375 -27.40625 L 41.609375 -27.40625 L 41.609375 -42.109375 C 41.609375 -44.359375 41.054688 -45.898438 39.953125 -46.734375 C 38.859375 -47.566406 37.113281 -47.984375 34.71875 -47.984375 L 34.28125 -47.984375 L 34.28125 -49.28125 L 56.53125 -49.28125 L 56.53125 -47.984375 C 53.988281 -47.984375 52.15625 -47.578125 51.03125 -46.765625 C 49.914062 -45.953125 49.359375 -44.351562 49.359375 -41.96875 L 49.359375 -7.171875 C 49.359375 -4.828125 49.914062 -3.257812 51.03125 -2.46875 C 52.15625 -1.6875 53.988281 -1.296875 56.53125 -1.296875 L 56.53125 0 L 34.28125 0 L 34.28125 -1.296875 C 36.914062 -1.296875 38.796875 -1.6875 39.921875 -2.46875 C 41.046875 -3.257812 41.609375 -4.851562 41.609375 -7.25 L 41.609375 -24.53125 L 17.359375 -24.53125 L 17.359375 -7.25 C 17.359375 -4.851562 17.921875 -3.257812 19.046875 -2.46875 C 20.171875 -1.6875 22.023438 -1.296875 24.609375 -1.296875 L 24.609375 0 L 2.515625 0 L 2.515625 -1.296875 C 5.046875 -1.335938 6.859375 -1.765625 7.953125 -2.578125 C 9.054688 -3.390625 9.609375 -4.945312 9.609375 -7.25 L 9.609375 -42.109375 C 9.609375 -44.304688 9.054688 -45.832031 7.953125 -46.6875 C 6.859375 -47.550781 5.164062 -47.984375 2.875 -47.984375 L 2.515625 -47.984375 L 2.515625 -49.28125 L 24.609375 -49.28125 Z M 24.609375 -47.984375 "/></g></g></g><g fill="#3d3d3d" fill-opacity="1"><g transform="translate(513.286821, 1059.043473)"><g/></g></g><g fill="#3d3d3d" fill-opacity="1"><g transform="translate(537.672256, 1059.043473)"><g><path d="M 21.734375 -47.984375 C 19.773438 -47.984375 18.390625 -47.753906 17.578125 -47.296875 C 16.765625 -46.847656 16.359375 -46.003906 16.359375 -44.765625 C 16.359375 -43.710938 16.835938 -42.015625 17.796875 -39.671875 L 28.984375 -12.046875 L 40.09375 -41.46875 C 40.144531 -41.5625 40.289062 -41.914062 40.53125 -42.53125 C 40.769531 -43.15625 40.890625 -43.851562 40.890625 -44.625 C 40.890625 -45.8125 40.382812 -46.65625 39.375 -47.15625 C 38.375 -47.664062 37.179688 -47.941406 35.796875 -47.984375 L 35.796875 -49.28125 L 50.78125 -49.28125 L 50.78125 -47.984375 C 49.019531 -47.890625 47.46875 -47.03125 46.125 -45.40625 C 44.78125 -43.78125 43.320312 -40.890625 41.75 -36.734375 L 27.40625 1.078125 L 26.046875 1.078125 L 9.390625 -40.171875 C 8.578125 -42.222656 7.820312 -43.773438 7.125 -44.828125 C 6.4375 -45.878906 5.613281 -46.644531 4.65625 -47.125 C 3.707031 -47.601562 2.441406 -47.890625 0.859375 -47.984375 L 0.859375 -49.28125 L 21.734375 -49.28125 Z M 21.734375 -47.984375 "/></g></g></g><g fill="#3d3d3d" fill-opacity="1"><g transform="translate(595.693704, 1059.043473)"><g><path d="M 42.25 -38.375 L 41.03125 -38.375 C 40.550781 -41.101562 39.664062 -43.125 38.375 -44.4375 C 37.082031 -45.75 35.289062 -46.40625 33 -46.40625 L 17.4375 -46.40625 L 17.4375 -27.40625 L 30.203125 -27.40625 C 32.492188 -27.40625 34.117188 -27.976562 35.078125 -29.125 C 36.035156 -30.269531 36.535156 -32.085938 36.578125 -34.578125 L 37.875 -34.578125 L 37.875 -17.21875 L 36.578125 -17.21875 C 36.578125 -19.707031 36.097656 -21.546875 35.140625 -22.734375 C 34.191406 -23.929688 32.5 -24.53125 30.0625 -24.53125 L 17.4375 -24.53125 L 17.4375 -6.53125 C 17.4375 -4.09375 18.390625 -2.875 20.296875 -2.875 L 32.921875 -2.875 C 35.554688 -2.875 37.875 -3.671875 39.875 -5.265625 C 41.882812 -6.867188 43.515625 -9.203125 44.765625 -12.265625 L 46.265625 -12.265625 L 42.25 0 L 2.578125 0 L 2.578125 -1.296875 C 5.066406 -1.296875 6.875 -1.710938 8 -2.546875 C 9.125 -3.378906 9.6875 -4.945312 9.6875 -7.25 L 9.6875 -42.53125 C 9.6875 -44.445312 9.125 -45.832031 8 -46.6875 C 6.875 -47.550781 5.066406 -47.984375 2.578125 -47.984375 L 2.578125 -49.28125 L 41.671875 -49.28125 Z M 42.25 -38.375 "/></g></g></g><g fill="#3d3d3d" fill-opacity="1"><g transform="translate(649.985844, 1059.043473)"><g><path d="M 31.421875 -50.359375 C 34.003906 -50.359375 36.265625 -50.117188 38.203125 -49.640625 C 40.140625 -49.160156 42.085938 -48.539062 44.046875 -47.78125 C 45.429688 -47.25 46.269531 -46.984375 46.5625 -46.984375 C 47.132812 -46.984375 47.632812 -47.269531 48.0625 -47.84375 C 48.488281 -48.414062 48.75 -49.253906 48.84375 -50.359375 L 50.21875 -50.359375 L 51.5 -34.640625 L 50.21875 -34.640625 C 49.539062 -37.367188 48.242188 -39.710938 46.328125 -41.671875 C 44.421875 -43.640625 42.203125 -45.125 39.671875 -46.125 C 37.140625 -47.125 34.554688 -47.625 31.921875 -47.625 C 28.335938 -47.625 25.035156 -46.726562 22.015625 -44.9375 C 19.003906 -43.144531 16.585938 -40.515625 14.765625 -37.046875 C 12.953125 -33.578125 12.046875 -29.429688 12.046875 -24.609375 C 12.046875 -20.160156 12.988281 -16.1875 14.875 -12.6875 C 16.769531 -9.195312 19.332031 -6.484375 22.5625 -4.546875 C 25.789062 -2.617188 29.289062 -1.65625 33.0625 -1.65625 C 35.070312 -1.65625 36.9375 -1.925781 38.65625 -2.46875 C 40.382812 -3.019531 42.203125 -3.941406 44.109375 -5.234375 L 44.109375 -19.4375 C 44.109375 -21.539062 43.554688 -23.007812 42.453125 -23.84375 C 41.359375 -24.6875 39.617188 -25.128906 37.234375 -25.171875 L 37.234375 -26.46875 L 58.390625 -26.46875 L 58.390625 -25.171875 C 56.617188 -25.035156 55.289062 -24.773438 54.40625 -24.390625 C 53.519531 -24.003906 52.875 -23.332031 52.46875 -22.375 C 52.0625 -21.425781 51.859375 -19.992188 51.859375 -18.078125 L 51.859375 -4.09375 C 48.367188 -2.175781 45.257812 -0.832031 42.53125 -0.0625 C 39.8125 0.695312 36.46875 1.078125 32.5 1.078125 C 26.28125 1.078125 20.945312 -0.113281 16.5 -2.5 C 12.050781 -4.894531 8.703125 -7.945312 6.453125 -11.65625 C 4.203125 -15.363281 3.078125 -19.175781 3.078125 -23.09375 C 3.078125 -28.070312 4.332031 -32.640625 6.84375 -36.796875 C 9.351562 -40.960938 12.769531 -44.265625 17.09375 -46.703125 C 21.425781 -49.140625 26.203125 -50.359375 31.421875 -50.359375 Z M 31.421875 -50.359375 "/></g></g></g><g fill="#3d3d3d" fill-opacity="1"><g transform="translate(715.466048, 1059.043473)"><g><path d="M 42.25 -38.375 L 41.03125 -38.375 C 40.550781 -41.101562 39.664062 -43.125 38.375 -44.4375 C 37.082031 -45.75 35.289062 -46.40625 33 -46.40625 L 17.4375 -46.40625 L 17.4375 -27.40625 L 30.203125 -27.40625 C 32.492188 -27.40625 34.117188 -27.976562 35.078125 -29.125 C 36.035156 -30.269531 36.535156 -32.085938 36.578125 -34.578125 L 37.875 -34.578125 L 37.875 -17.21875 L 36.578125 -17.21875 C 36.578125 -19.707031 36.097656 -21.546875 35.140625 -22.734375 C 34.191406 -23.929688 32.5 -24.53125 30.0625 -24.53125 L 17.4375 -24.53125 L 17.4375 -6.53125 C 17.4375 -4.09375 18.390625 -2.875 20.296875 -2.875 L 32.921875 -2.875 C 35.554688 -2.875 37.875 -3.671875 39.875 -5.265625 C 41.882812 -6.867188 43.515625 -9.203125 44.765625 -12.265625 L 46.265625 -12.265625 L 42.25 0 L 2.578125 0 L 2.578125 -1.296875 C 5.066406 -1.296875 6.875 -1.710938 8 -2.546875 C 9.125 -3.378906 9.6875 -4.945312 9.6875 -7.25 L 9.6875 -42.53125 C 9.6875 -44.445312 9.125 -45.832031 8 -46.6875 C 6.875 -47.550781 5.066406 -47.984375 2.578125 -47.984375 L 2.578125 -49.28125 L 41.671875 -49.28125 Z M 42.25 -38.375 "/></g></g></g><g fill="#3d3d3d" fill-opacity="1"><g transform="translate(769.758142, 1059.043473)"><g><path d="M 46.046875 -38.09375 L 44.6875 -38.09375 C 44.019531 -43.445312 41.128906 -46.125 36.015625 -46.125 L 27.765625 -46.125 L 27.765625 -6.75 C 27.765625 -4.59375 28.382812 -3.144531 29.625 -2.40625 C 30.863281 -1.664062 32.632812 -1.296875 34.9375 -1.296875 L 34.9375 0 L 12.84375 0 L 12.84375 -1.296875 C 15.375 -1.296875 17.203125 -1.722656 18.328125 -2.578125 C 19.453125 -3.441406 20.015625 -5 20.015625 -7.25 L 20.015625 -46.125 L 11.265625 -46.125 C 9.015625 -46.125 7.132812 -45.46875 5.625 -44.15625 C 4.125 -42.84375 3.273438 -40.820312 3.078125 -38.09375 L 1.796875 -38.09375 L 2.15625 -49.28125 L 45.6875 -49.28125 Z M 46.046875 -38.09375 "/></g></g></g><g fill="#3d3d3d" fill-opacity="1"><g transform="translate(824.050236, 1059.043473)"><g><path d="M 8.25 -9.546875 L 26.609375 -51.4375 L 27.90625 -51.4375 L 47.265625 -6.8125 C 47.984375 -5.1875 48.664062 -3.976562 49.3125 -3.1875 C 49.957031 -2.40625 50.640625 -1.894531 51.359375 -1.65625 C 52.078125 -1.414062 53.054688 -1.296875 54.296875 -1.296875 L 54.296875 0 L 34.078125 0 L 34.078125 -1.296875 C 35.796875 -1.296875 37.082031 -1.601562 37.9375 -2.21875 C 38.800781 -2.84375 39.234375 -3.679688 39.234375 -4.734375 C 39.234375 -5.640625 38.925781 -6.765625 38.3125 -8.109375 L 34.578125 -16.578125 L 14.703125 -16.578125 L 10.609375 -7.171875 C 10.140625 -6.210938 9.90625 -5.351562 9.90625 -4.59375 C 9.90625 -2.394531 11.671875 -1.296875 15.203125 -1.296875 L 15.203125 0 L 1 0 L 1 -1.296875 C 2.195312 -1.429688 3.164062 -1.773438 3.90625 -2.328125 C 4.644531 -2.878906 5.3125 -3.679688 5.90625 -4.734375 C 6.507812 -5.785156 7.289062 -7.390625 8.25 -9.546875 Z M 33.421875 -19.296875 L 24.671875 -39.3125 L 15.921875 -19.296875 Z M 33.421875 -19.296875 "/></g></g></g><g fill="#3d3d3d" fill-opacity="1"><g transform="translate(885.801085, 1059.043473)"><g><path d="M 42.46875 -36.15625 C 42.46875 -33.476562 41.65625 -31.179688 40.03125 -29.265625 C 38.40625 -27.347656 36.203125 -26.054688 33.421875 -25.390625 L 33.421875 -25.25 C 36.773438 -24.726562 39.476562 -23.328125 41.53125 -21.046875 C 43.59375 -18.773438 44.625 -16.160156 44.625 -13.203125 C 44.625 -10.660156 43.941406 -8.382812 42.578125 -6.375 C 41.210938 -4.375 39.238281 -2.8125 36.65625 -1.6875 C 34.070312 -0.5625 31.035156 0 27.546875 0 L 2.9375 0 L 2.9375 -1.296875 C 4.945312 -1.296875 6.453125 -1.519531 7.453125 -1.96875 C 8.460938 -2.425781 9.15625 -3.15625 9.53125 -4.15625 C 9.914062 -5.164062 10.109375 -6.625 10.109375 -8.53125 L 10.109375 -40.390625 C 10.109375 -42.441406 9.925781 -43.992188 9.5625 -45.046875 C 9.207031 -46.097656 8.53125 -46.835938 7.53125 -47.265625 C 6.53125 -47.703125 5 -47.941406 2.9375 -47.984375 L 2.9375 -49.28125 L 24.171875 -49.28125 C 27.046875 -49.28125 29.859375 -48.882812 32.609375 -48.09375 C 35.359375 -47.3125 37.6875 -45.9375 39.59375 -43.96875 C 41.507812 -42.007812 42.46875 -39.40625 42.46875 -36.15625 Z M 17.859375 -46.40625 L 17.859375 -27.265625 C 20.441406 -26.734375 22.425781 -26.46875 23.8125 -26.46875 C 25.769531 -26.46875 27.523438 -26.910156 29.078125 -27.796875 C 30.640625 -28.679688 31.863281 -29.875 32.75 -31.375 C 33.632812 -32.882812 34.078125 -34.550781 34.078125 -36.375 C 34.078125 -39.382812 33.046875 -41.894531 30.984375 -43.90625 C 28.929688 -45.914062 26.179688 -46.921875 22.734375 -46.921875 C 21.109375 -46.921875 19.484375 -46.75 17.859375 -46.40625 Z M 17.859375 -23.890625 L 17.859375 -3.4375 C 19.921875 -2.820312 21.90625 -2.515625 23.8125 -2.515625 C 27.40625 -2.515625 30.273438 -3.484375 32.421875 -5.421875 C 34.578125 -7.359375 35.65625 -9.90625 35.65625 -13.0625 C 35.65625 -16.40625 34.347656 -19.082031 31.734375 -21.09375 C 29.128906 -23.101562 25.582031 -24.109375 21.09375 -24.109375 C 20.320312 -24.109375 19.242188 -24.035156 17.859375 -23.890625 Z M 17.859375 -23.890625 "/></g></g></g><g fill="#3d3d3d" fill-opacity="1"><g transform="translate(940.09318, 1059.043473)"><g><path d="M 25.109375 -47.984375 C 22.617188 -47.984375 20.835938 -47.585938 19.765625 -46.796875 C 18.691406 -46.015625 18.15625 -44.425781 18.15625 -42.03125 L 18.15625 -6.03125 C 18.15625 -5.019531 18.359375 -4.300781 18.765625 -3.875 C 19.171875 -3.445312 19.847656 -3.234375 20.796875 -3.234375 L 31.484375 -3.234375 C 33.972656 -3.234375 36.03125 -3.554688 37.65625 -4.203125 C 39.28125 -4.847656 40.675781 -5.898438 41.84375 -7.359375 C 43.019531 -8.816406 44.160156 -10.882812 45.265625 -13.5625 L 46.484375 -13.125 L 42.328125 0 L 3.015625 0 L 3.015625 -1.296875 L 3.515625 -1.296875 C 5.953125 -1.296875 7.707031 -1.722656 8.78125 -2.578125 C 9.863281 -3.441406 10.40625 -5 10.40625 -7.25 L 10.40625 -42.109375 C 10.40625 -44.304688 9.84375 -45.832031 8.71875 -46.6875 C 7.59375 -47.550781 5.832031 -47.984375 3.4375 -47.984375 L 3.015625 -47.984375 L 3.015625 -49.28125 L 25.109375 -49.28125 Z M 25.109375 -47.984375 "/></g></g></g><g fill="#3d3d3d" fill-opacity="1"><g transform="translate(994.385319, 1059.043473)"><g><path d="M 42.25 -38.375 L 41.03125 -38.375 C 40.550781 -41.101562 39.664062 -43.125 38.375 -44.4375 C 37.082031 -45.75 35.289062 -46.40625 33 -46.40625 L 17.4375 -46.40625 L 17.4375 -27.40625 L 30.203125 -27.40625 C 32.492188 -27.40625 34.117188 -27.976562 35.078125 -29.125 C 36.035156 -30.269531 36.535156 -32.085938 36.578125 -34.578125 L 37.875 -34.578125 L 37.875 -17.21875 L 36.578125 -17.21875 C 36.578125 -19.707031 36.097656 -21.546875 35.140625 -22.734375 C 34.191406 -23.929688 32.5 -24.53125 30.0625 -24.53125 L 17.4375 -24.53125 L 17.4375 -6.53125 C 17.4375 -4.09375 18.390625 -2.875 20.296875 -2.875 L 32.921875 -2.875 C 35.554688 -2.875 37.875 -3.671875 39.875 -5.265625 C 41.882812 -6.867188 43.515625 -9.203125 44.765625 -12.265625 L 46.265625 -12.265625 L 42.25 0 L 2.578125 0 L 2.578125 -1.296875 C 5.066406 -1.296875 6.875 -1.710938 8 -2.546875 C 9.125 -3.378906 9.6875 -4.945312 9.6875 -7.25 L 9.6875 -42.53125 C 9.6875 -44.445312 9.125 -45.832031 8 -46.6875 C 6.875 -47.550781 5.066406 -47.984375 2.578125 -47.984375 L 2.578125 -49.28125 L 41.671875 -49.28125 Z M 42.25 -38.375 "/></g></g></g><g fill="#3d3d3d" fill-opacity="1"><g transform="translate(1048.677459, 1059.043473)"><g><path d="M 18.078125 -50.359375 C 19.703125 -50.359375 21.113281 -50.203125 22.3125 -49.890625 C 23.507812 -49.578125 24.726562 -49.160156 25.96875 -48.640625 C 26.59375 -48.398438 27.203125 -48.179688 27.796875 -47.984375 C 28.390625 -47.796875 28.925781 -47.703125 29.40625 -47.703125 C 30.550781 -47.703125 31.460938 -48.585938 32.140625 -50.359375 L 33.5 -50.359375 L 33.5 -34 L 32.140625 -34 C 31.898438 -36.53125 31.144531 -38.835938 29.875 -40.921875 C 28.601562 -43.003906 27.023438 -44.640625 25.140625 -45.828125 C 23.253906 -47.023438 21.234375 -47.625 19.078125 -47.625 C 16.734375 -47.625 14.722656 -46.921875 13.046875 -45.515625 C 11.378906 -44.109375 10.546875 -42.398438 10.546875 -40.390625 C 10.546875 -38.046875 11.691406 -36.007812 13.984375 -34.28125 C 15.609375 -33.09375 17.878906 -31.660156 20.796875 -29.984375 C 23.378906 -28.410156 25.53125 -27.046875 27.25 -25.890625 C 28.976562 -24.742188 30.582031 -23.503906 32.0625 -22.171875 C 33.40625 -20.878906 34.46875 -19.394531 35.25 -17.71875 C 36.039062 -16.039062 36.4375 -14.316406 36.4375 -12.546875 C 36.4375 -10.109375 35.765625 -7.835938 34.421875 -5.734375 C 33.085938 -3.628906 31.257812 -1.96875 28.9375 -0.75 C 26.625 0.46875 24.082031 1.078125 21.3125 1.078125 C 19.539062 1.078125 17.972656 0.921875 16.609375 0.609375 C 15.242188 0.296875 13.820312 -0.117188 12.34375 -0.640625 C 10.71875 -1.210938 9.5 -1.5 8.6875 -1.5 C 7.394531 -1.5 6.410156 -0.640625 5.734375 1.078125 L 4.453125 1.078125 L 4.453125 -15.5 L 5.734375 -15.5 C 6.546875 -11.238281 8.160156 -7.863281 10.578125 -5.375 C 12.992188 -2.894531 16.113281 -1.65625 19.9375 -1.65625 C 22.664062 -1.65625 24.914062 -2.394531 26.6875 -3.875 C 28.457031 -5.351562 29.34375 -7.21875 29.34375 -9.46875 C 29.34375 -10.613281 29.125 -11.664062 28.6875 -12.625 C 28.257812 -13.582031 27.546875 -14.609375 26.546875 -15.703125 C 25.628906 -16.660156 24.332031 -17.703125 22.65625 -18.828125 C 20.988281 -19.953125 18.769531 -21.351562 16 -23.03125 C 13.65625 -24.457031 11.859375 -25.585938 10.609375 -26.421875 C 9.367188 -27.265625 8.4375 -28 7.8125 -28.625 C 5.375 -31.113281 4.15625 -34.101562 4.15625 -37.59375 C 4.15625 -39.976562 4.765625 -42.140625 5.984375 -44.078125 C 7.203125 -46.015625 8.863281 -47.546875 10.96875 -48.671875 C 13.070312 -49.796875 15.441406 -50.359375 18.078125 -50.359375 Z M 18.078125 -50.359375 "/></g></g></g><g fill="#3d3d3d" fill-opacity="1"><g transform="translate(1094.721889, 1059.043473)"><g/></g></g><g fill="#3d3d3d" fill-opacity="1"><g transform="translate(1119.107324, 1059.043473)"><g><path d="M 8.25 -9.546875 L 26.609375 -51.4375 L 27.90625 -51.4375 L 47.265625 -6.8125 C 47.984375 -5.1875 48.664062 -3.976562 49.3125 -3.1875 C 49.957031 -2.40625 50.640625 -1.894531 51.359375 -1.65625 C 52.078125 -1.414062 53.054688 -1.296875 54.296875 -1.296875 L 54.296875 0 L 34.078125 0 L 34.078125 -1.296875 C 35.796875 -1.296875 37.082031 -1.601562 37.9375 -2.21875 C 38.800781 -2.84375 39.234375 -3.679688 39.234375 -4.734375 C 39.234375 -5.640625 38.925781 -6.765625 38.3125 -8.109375 L 34.578125 -16.578125 L 14.703125 -16.578125 L 10.609375 -7.171875 C 10.140625 -6.210938 9.90625 -5.351562 9.90625 -4.59375 C 9.90625 -2.394531 11.671875 -1.296875 15.203125 -1.296875 L 15.203125 0 L 1 0 L 1 -1.296875 C 2.195312 -1.429688 3.164062 -1.773438 3.90625 -2.328125 C 4.644531 -2.878906 5.3125 -3.679688 5.90625 -4.734375 C 6.507812 -5.785156 7.289062 -7.390625 8.25 -9.546875 Z M 33.421875 -19.296875 L 24.671875 -39.3125 L 15.921875 -19.296875 Z M 33.421875 -19.296875 "/></g></g></g><g fill="#3d3d3d" fill-opacity="1"><g transform="translate(1180.858173, 1059.043473)"><g><path d="M 47.125 -12.90625 L 47.125 -42.46875 C 47.125 -44.613281 46.738281 -46.054688 45.96875 -46.796875 C 45.207031 -47.546875 43.800781 -47.941406 41.75 -47.984375 L 39.953125 -47.984375 L 39.953125 -49.28125 L 58.109375 -49.28125 L 58.109375 -47.984375 L 56.59375 -47.984375 C 54.6875 -47.984375 53.328125 -47.863281 52.515625 -47.625 C 51.703125 -47.382812 51.140625 -46.820312 50.828125 -45.9375 C 50.515625 -45.0625 50.359375 -43.617188 50.359375 -41.609375 L 50.359375 0.578125 L 49.359375 0.578125 L 14.125 -39.09375 L 14.125 -8.328125 C 14.125 -5.640625 14.660156 -3.796875 15.734375 -2.796875 C 16.816406 -1.796875 18.675781 -1.296875 21.3125 -1.296875 L 21.3125 0 L 3.515625 0 L 3.515625 -1.296875 L 3.953125 -1.296875 C 6.242188 -1.296875 7.984375 -1.710938 9.171875 -2.546875 C 10.367188 -3.378906 10.96875 -4.921875 10.96875 -7.171875 L 10.96875 -42.25 C 9.726562 -44.351562 8.316406 -45.832031 6.734375 -46.6875 C 5.160156 -47.550781 3.226562 -47.984375 0.9375 -47.984375 L 0.9375 -49.28125 L 15.28125 -49.28125 Z M 47.125 -12.90625 "/></g></g></g><g fill="#3d3d3d" fill-opacity="1"><g transform="translate(1246.338331, 1059.043473)"><g><path d="M 56.09375 -24.671875 C 56.09375 -19.742188 54.8125 -15.414062 52.25 -11.6875 C 49.695312 -7.957031 46.242188 -5.078125 41.890625 -3.046875 C 37.535156 -1.015625 32.78125 0 27.625 0 L 2.296875 0 L 2.296875 -1.296875 C 4.878906 -1.335938 6.734375 -1.765625 7.859375 -2.578125 C 8.984375 -3.390625 9.546875 -4.945312 9.546875 -7.25 L 9.546875 -42.1875 C 9.546875 -44.476562 8.945312 -46.015625 7.75 -46.796875 C 6.550781 -47.585938 4.734375 -47.984375 2.296875 -47.984375 L 2.296875 -49.28125 L 29.765625 -49.28125 C 35.265625 -49.28125 40.007812 -48.109375 44 -45.765625 C 48 -43.421875 51.015625 -40.367188 53.046875 -36.609375 C 55.078125 -32.859375 56.09375 -28.878906 56.09375 -24.671875 Z M 17.28125 -45.34375 L 17.28125 -3.59375 C 19.675781 -2.875 22.257812 -2.515625 25.03125 -2.515625 C 29.4375 -2.515625 33.3125 -3.410156 36.65625 -5.203125 C 40 -6.992188 42.578125 -9.539062 44.390625 -12.84375 C 46.210938 -16.144531 47.125 -19.945312 47.125 -24.25 C 47.125 -28.550781 46.210938 -32.382812 44.390625 -35.75 C 42.578125 -39.125 40.007812 -41.769531 36.6875 -43.6875 C 33.363281 -45.601562 29.550781 -46.5625 25.25 -46.5625 C 22.382812 -46.5625 19.726562 -46.15625 17.28125 -45.34375 Z M 17.28125 -45.34375 "/></g></g></g><g fill="#3d3d3d" fill-opacity="1"><g transform="translate(489.005209, 1132.543466)"><g><path d="M 24.609375 -47.984375 L 24.171875 -47.984375 C 21.785156 -47.984375 20.050781 -47.550781 18.96875 -46.6875 C 17.894531 -45.832031 17.359375 -44.28125 17.359375 -42.03125 L 17.359375 -27.40625 L 41.609375 -27.40625 L 41.609375 -42.109375 C 41.609375 -44.359375 41.054688 -45.898438 39.953125 -46.734375 C 38.859375 -47.566406 37.113281 -47.984375 34.71875 -47.984375 L 34.28125 -47.984375 L 34.28125 -49.28125 L 56.53125 -49.28125 L 56.53125 -47.984375 C 53.988281 -47.984375 52.15625 -47.578125 51.03125 -46.765625 C 49.914062 -45.953125 49.359375 -44.351562 49.359375 -41.96875 L 49.359375 -7.171875 C 49.359375 -4.828125 49.914062 -3.257812 51.03125 -2.46875 C 52.15625 -1.6875 53.988281 -1.296875 56.53125 -1.296875 L 56.53125 0 L 34.28125 0 L 34.28125 -1.296875 C 36.914062 -1.296875 38.796875 -1.6875 39.921875 -2.46875 C 41.046875 -3.257812 41.609375 -4.851562 41.609375 -7.25 L 41.609375 -24.53125 L 17.359375 -24.53125 L 17.359375 -7.25 C 17.359375 -4.851562 17.921875 -3.257812 19.046875 -2.46875 C 20.171875 -1.6875 22.023438 -1.296875 24.609375 -1.296875 L 24.609375 0 L 2.515625 0 L 2.515625 -1.296875 C 5.046875 -1.335938 6.859375 -1.765625 7.953125 -2.578125 C 9.054688 -3.390625 9.609375 -4.945312 9.609375 -7.25 L 9.609375 -42.109375 C 9.609375 -44.304688 9.054688 -45.832031 7.953125 -46.6875 C 6.859375 -47.550781 5.164062 -47.984375 2.875 -47.984375 L 2.515625 -47.984375 L 2.515625 -49.28125 L 24.609375 -49.28125 Z M 24.609375 -47.984375 "/></g></g></g><g fill="#3d3d3d" fill-opacity="1"><g transform="translate(554.485424, 1132.543466)"><g><path d="M 8.25 -9.546875 L 26.609375 -51.4375 L 27.90625 -51.4375 L 47.265625 -6.8125 C 47.984375 -5.1875 48.664062 -3.976562 49.3125 -3.1875 C 49.957031 -2.40625 50.640625 -1.894531 51.359375 -1.65625 C 52.078125 -1.414062 53.054688 -1.296875 54.296875 -1.296875 L 54.296875 0 L 34.078125 0 L 34.078125 -1.296875 C 35.796875 -1.296875 37.082031 -1.601562 37.9375 -2.21875 C 38.800781 -2.84375 39.234375 -3.679688 39.234375 -4.734375 C 39.234375 -5.640625 38.925781 -6.765625 38.3125 -8.109375 L 34.578125 -16.578125 L 14.703125 -16.578125 L 10.609375 -7.171875 C 10.140625 -6.210938 9.90625 -5.351562 9.90625 -4.59375 C 9.90625 -2.394531 11.671875 -1.296875 15.203125 -1.296875 L 15.203125 0 L 1 0 L 1 -1.296875 C 2.195312 -1.429688 3.164062 -1.773438 3.90625 -2.328125 C 4.644531 -2.878906 5.3125 -3.679688 5.90625 -4.734375 C 6.507812 -5.785156 7.289062 -7.390625 8.25 -9.546875 Z M 33.421875 -19.296875 L 24.671875 -39.3125 L 15.921875 -19.296875 Z M 33.421875 -19.296875 "/></g></g></g><g fill="#3d3d3d" fill-opacity="1"><g transform="translate(616.236274, 1132.543466)"><g><path d="M 25.109375 -47.984375 C 22.617188 -47.984375 20.835938 -47.585938 19.765625 -46.796875 C 18.691406 -46.015625 18.15625 -44.425781 18.15625 -42.03125 L 18.15625 -6.03125 C 18.15625 -5.019531 18.359375 -4.300781 18.765625 -3.875 C 19.171875 -3.445312 19.847656 -3.234375 20.796875 -3.234375 L 31.484375 -3.234375 C 33.972656 -3.234375 36.03125 -3.554688 37.65625 -4.203125 C 39.28125 -4.847656 40.675781 -5.898438 41.84375 -7.359375 C 43.019531 -8.816406 44.160156 -10.882812 45.265625 -13.5625 L 46.484375 -13.125 L 42.328125 0 L 3.015625 0 L 3.015625 -1.296875 L 3.515625 -1.296875 C 5.953125 -1.296875 7.707031 -1.722656 8.78125 -2.578125 C 9.863281 -3.441406 10.40625 -5 10.40625 -7.25 L 10.40625 -42.109375 C 10.40625 -44.304688 9.84375 -45.832031 8.71875 -46.6875 C 7.59375 -47.550781 5.832031 -47.984375 3.4375 -47.984375 L 3.015625 -47.984375 L 3.015625 -49.28125 L 25.109375 -49.28125 Z M 25.109375 -47.984375 "/></g></g></g><g fill="#3d3d3d" fill-opacity="1"><g transform="translate(670.52838, 1132.543466)"><g><path d="M 8.25 -9.546875 L 26.609375 -51.4375 L 27.90625 -51.4375 L 47.265625 -6.8125 C 47.984375 -5.1875 48.664062 -3.976562 49.3125 -3.1875 C 49.957031 -2.40625 50.640625 -1.894531 51.359375 -1.65625 C 52.078125 -1.414062 53.054688 -1.296875 54.296875 -1.296875 L 54.296875 0 L 34.078125 0 L 34.078125 -1.296875 C 35.796875 -1.296875 37.082031 -1.601562 37.9375 -2.21875 C 38.800781 -2.84375 39.234375 -3.679688 39.234375 -4.734375 C 39.234375 -5.640625 38.925781 -6.765625 38.3125 -8.109375 L 34.578125 -16.578125 L 14.703125 -16.578125 L 10.609375 -7.171875 C 10.140625 -6.210938 9.90625 -5.351562 9.90625 -4.59375 C 9.90625 -2.394531 11.671875 -1.296875 15.203125 -1.296875 L 15.203125 0 L 1 0 L 1 -1.296875 C 2.195312 -1.429688 3.164062 -1.773438 3.90625 -2.328125 C 4.644531 -2.878906 5.3125 -3.679688 5.90625 -4.734375 C 6.507812 -5.785156 7.289062 -7.390625 8.25 -9.546875 Z M 33.421875 -19.296875 L 24.671875 -39.3125 L 15.921875 -19.296875 Z M 33.421875 -19.296875 "/></g></g></g><g fill="#3d3d3d" fill-opacity="1"><g transform="translate(732.279229, 1132.543466)"><g><path d="M 25.109375 -47.984375 C 22.617188 -47.984375 20.835938 -47.585938 19.765625 -46.796875 C 18.691406 -46.015625 18.15625 -44.425781 18.15625 -42.03125 L 18.15625 -6.03125 C 18.15625 -5.019531 18.359375 -4.300781 18.765625 -3.875 C 19.171875 -3.445312 19.847656 -3.234375 20.796875 -3.234375 L 31.484375 -3.234375 C 33.972656 -3.234375 36.03125 -3.554688 37.65625 -4.203125 C 39.28125 -4.847656 40.675781 -5.898438 41.84375 -7.359375 C 43.019531 -8.816406 44.160156 -10.882812 45.265625 -13.5625 L 46.484375 -13.125 L 42.328125 0 L 3.015625 0 L 3.015625 -1.296875 L 3.515625 -1.296875 C 5.953125 -1.296875 7.707031 -1.722656 8.78125 -2.578125 C 9.863281 -3.441406 10.40625 -5 10.40625 -7.25 L 10.40625 -42.109375 C 10.40625 -44.304688 9.84375 -45.832031 8.71875 -46.6875 C 7.59375 -47.550781 5.832031 -47.984375 3.4375 -47.984375 L 3.015625 -47.984375 L 3.015625 -49.28125 L 25.109375 -49.28125 Z M 25.109375 -47.984375 "/></g></g></g><g fill="#3d3d3d" fill-opacity="1"><g transform="translate(786.571346, 1132.543466)"><g/></g></g><g fill="#3d3d3d" fill-opacity="1"><g transform="translate(810.956736, 1132.543466)"><g><path d="M 45.40625 -38.671875 L 44.046875 -38.671875 C 43.710938 -41.441406 42.695312 -43.492188 41 -44.828125 C 39.300781 -46.171875 36.726562 -46.84375 33.28125 -46.84375 L 17.71875 -46.84375 L 17.71875 -27.40625 L 29.90625 -27.40625 C 32.488281 -27.40625 34.296875 -27.867188 35.328125 -28.796875 C 36.359375 -29.734375 36.875 -31.207031 36.875 -33.21875 L 36.875 -34.359375 L 38.15625 -34.359375 L 38.15625 -17.578125 L 36.875 -17.578125 L 36.875 -18.4375 C 36.875 -20.539062 36.367188 -22.082031 35.359375 -23.0625 C 34.359375 -24.039062 32.78125 -24.53125 30.625 -24.53125 L 17.71875 -24.53125 L 17.71875 -7.171875 C 17.71875 -4.878906 18.289062 -3.328125 19.4375 -2.515625 C 20.582031 -1.703125 22.375 -1.296875 24.8125 -1.296875 L 24.8125 0 L 3.078125 0 L 3.078125 -1.296875 L 3.515625 -1.296875 C 5.671875 -1.296875 7.285156 -1.738281 8.359375 -2.625 C 9.429688 -3.507812 9.96875 -5.050781 9.96875 -7.25 L 9.96875 -42.390625 C 9.96875 -44.398438 9.414062 -45.832031 8.3125 -46.6875 C 7.21875 -47.550781 5.472656 -47.984375 3.078125 -47.984375 L 3.078125 -49.28125 L 44.90625 -49.28125 Z M 45.40625 -38.671875 "/></g></g></g><g fill="#3d3d3d" fill-opacity="1"><g transform="translate(865.248853, 1132.543466)"><g><path d="M 27.625 -50.359375 C 32.164062 -50.359375 36.347656 -49.207031 40.171875 -46.90625 C 43.992188 -44.613281 47.03125 -41.492188 49.28125 -37.546875 C 51.53125 -33.609375 52.65625 -29.296875 52.65625 -24.609375 C 52.65625 -19.960938 51.53125 -15.664062 49.28125 -11.71875 C 47.03125 -7.78125 43.992188 -4.660156 40.171875 -2.359375 C 36.347656 -0.0664062 32.164062 1.078125 27.625 1.078125 C 23.070312 1.078125 18.882812 -0.0664062 15.0625 -2.359375 C 11.238281 -4.660156 8.210938 -7.78125 5.984375 -11.71875 C 3.765625 -15.664062 2.65625 -19.960938 2.65625 -24.609375 C 2.65625 -29.296875 3.765625 -33.609375 5.984375 -37.546875 C 8.210938 -41.492188 11.238281 -44.613281 15.0625 -46.90625 C 18.882812 -49.207031 23.070312 -50.359375 27.625 -50.359375 Z M 11.625 -24.609375 C 11.625 -20.015625 12.28125 -15.984375 13.59375 -12.515625 C 14.90625 -9.046875 16.769531 -6.367188 19.1875 -4.484375 C 21.601562 -2.597656 24.414062 -1.65625 27.625 -1.65625 C 30.820312 -1.65625 33.640625 -2.597656 36.078125 -4.484375 C 38.515625 -6.367188 40.390625 -9.046875 41.703125 -12.515625 C 43.023438 -15.984375 43.6875 -20.015625 43.6875 -24.609375 C 43.6875 -29.097656 43.039062 -33.085938 41.75 -36.578125 C 40.457031 -40.078125 38.601562 -42.789062 36.1875 -44.71875 C 33.769531 -46.65625 30.890625 -47.625 27.546875 -47.625 C 24.242188 -47.625 21.394531 -46.644531 19 -44.6875 C 16.613281 -42.726562 14.785156 -40.003906 13.515625 -36.515625 C 12.253906 -33.023438 11.625 -29.054688 11.625 -24.609375 Z M 11.625 -24.609375 "/></g></g></g><g fill="#3d3d3d" fill-opacity="1"><g transform="translate(926.999679, 1132.543466)"><g><path d="M 27.625 -50.359375 C 32.164062 -50.359375 36.347656 -49.207031 40.171875 -46.90625 C 43.992188 -44.613281 47.03125 -41.492188 49.28125 -37.546875 C 51.53125 -33.609375 52.65625 -29.296875 52.65625 -24.609375 C 52.65625 -19.960938 51.53125 -15.664062 49.28125 -11.71875 C 47.03125 -7.78125 43.992188 -4.660156 40.171875 -2.359375 C 36.347656 -0.0664062 32.164062 1.078125 27.625 1.078125 C 23.070312 1.078125 18.882812 -0.0664062 15.0625 -2.359375 C 11.238281 -4.660156 8.210938 -7.78125 5.984375 -11.71875 C 3.765625 -15.664062 2.65625 -19.960938 2.65625 -24.609375 C 2.65625 -29.296875 3.765625 -33.609375 5.984375 -37.546875 C 8.210938 -41.492188 11.238281 -44.613281 15.0625 -46.90625 C 18.882812 -49.207031 23.070312 -50.359375 27.625 -50.359375 Z M 11.625 -24.609375 C 11.625 -20.015625 12.28125 -15.984375 13.59375 -12.515625 C 14.90625 -9.046875 16.769531 -6.367188 19.1875 -4.484375 C 21.601562 -2.597656 24.414062 -1.65625 27.625 -1.65625 C 30.820312 -1.65625 33.640625 -2.597656 36.078125 -4.484375 C 38.515625 -6.367188 40.390625 -9.046875 41.703125 -12.515625 C 43.023438 -15.984375 43.6875 -20.015625 43.6875 -24.609375 C 43.6875 -29.097656 43.039062 -33.085938 41.75 -36.578125 C 40.457031 -40.078125 38.601562 -42.789062 36.1875 -44.71875 C 33.769531 -46.65625 30.890625 -47.625 27.546875 -47.625 C 24.242188 -47.625 21.394531 -46.644531 19 -44.6875 C 16.613281 -42.726562 14.785156 -40.003906 13.515625 -36.515625 C 12.253906 -33.023438 11.625 -29.054688 11.625 -24.609375 Z M 11.625 -24.609375 "/></g></g></g><g fill="#3d3d3d" fill-opacity="1"><g transform="translate(988.750529, 1132.543466)"><g><path d="M 56.09375 -24.671875 C 56.09375 -19.742188 54.8125 -15.414062 52.25 -11.6875 C 49.695312 -7.957031 46.242188 -5.078125 41.890625 -3.046875 C 37.535156 -1.015625 32.78125 0 27.625 0 L 2.296875 0 L 2.296875 -1.296875 C 4.878906 -1.335938 6.734375 -1.765625 7.859375 -2.578125 C 8.984375 -3.390625 9.546875 -4.945312 9.546875 -7.25 L 9.546875 -42.1875 C 9.546875 -44.476562 8.945312 -46.015625 7.75 -46.796875 C 6.550781 -47.585938 4.734375 -47.984375 2.296875 -47.984375 L 2.296875 -49.28125 L 29.765625 -49.28125 C 35.265625 -49.28125 40.007812 -48.109375 44 -45.765625 C 48 -43.421875 51.015625 -40.367188 53.046875 -36.609375 C 55.078125 -32.859375 56.09375 -28.878906 56.09375 -24.671875 Z M 17.28125 -45.34375 L 17.28125 -3.59375 C 19.675781 -2.875 22.257812 -2.515625 25.03125 -2.515625 C 29.4375 -2.515625 33.3125 -3.410156 36.65625 -5.203125 C 40 -6.992188 42.578125 -9.539062 44.390625 -12.84375 C 46.210938 -16.144531 47.125 -19.945312 47.125 -24.25 C 47.125 -28.550781 46.210938 -32.382812 44.390625 -35.75 C 42.578125 -39.125 40.007812 -41.769531 36.6875 -43.6875 C 33.363281 -45.601562 29.550781 -46.5625 25.25 -46.5625 C 22.382812 -46.5625 19.726562 -46.15625 17.28125 -45.34375 Z M 17.28125 -45.34375 "/></g></g></g></svg>